<svg xmlns="http://www.w3.org/2000/svg" id="b32a285a-6b04-4396-8e15-f52ff515c3cb" width="1115.914" height="832.564" data-name="Layer 1" viewBox="0 0 1115.914 832.564"><title>good team</title><line x1="389.957" x2="533.957" y1="255.282" y2="255.282" fill="none" stroke="#3f3d56" stroke-miterlimit="10" stroke-width="2"/><ellipse cx="248.867" cy="443.498" fill="#2f2e41" rx="39.5" ry="12.4" transform="translate(-296.29734 483.90373) rotate(-69.08217)"/><path fill="#f2f2f2" d="M1153.37778,543.01392c15.6657,116.58889-5.66624,233.30465-114.16871,278.75349S805.90441,816.10117,760.45558,707.5987s61.78473-173.424,114.16871-278.75349C981.00055,214.95244,1104.72832,180.94968,1153.37778,543.01392Z" transform="translate(-42.04308 -33.7182)"/><ellipse cx="916" cy="794.436" fill="#3f3d56" rx="170" ry="23.127"/><rect width="24" height="43" x="858.752" y="753.632" fill="#2f2e41" transform="translate(313.59438 1787.2135) rotate(-105.45227)"/><ellipse cx="844.359" cy="777.24" fill="#2f2e41" rx="7.5" ry="20" transform="translate(-218.60626 219.34424) rotate(-15.45227)"/><ellipse cx="965.361" cy="688.069" fill="#2f2e41" rx="39.5" ry="12.4" transform="translate(111.82337 1518.54826) rotate(-82.28111)"/><circle cx="915.585" cy="728.299" r="79" fill="#2f2e41"/><rect width="24" height="43" x="858.752" y="739.632" fill="#2f2e41" transform="translate(327.08832 1769.4834) rotate(-105.45227)"/><ellipse cx="844.359" cy="763.24" fill="#2f2e41" rx="7.5" ry="20" transform="translate(-214.87616 218.83818) rotate(-15.45227)"/><circle cx="936.329" cy="683.043" r="27" fill="#fff"/><circle cx="944.963" cy="671.116" r="9" fill="#3f3d56"/><path fill="#5a67d8" d="M1048.85766,816.30571c29.23451-1.46311,51.62459-28.80779,50.00965-61.07607s-26.62336-57.24079-55.85786-55.77768-33.822,24.41244-32.20709,56.68072S1019.62316,817.76882,1048.85766,816.30571Z" transform="translate(-42.04308 -33.7182)"/><path fill="#fff" d="M925.34085,728.59207a18,18,0,0,1-2.90424-35.88266c9.90873-.802,12.611,7.06452,13.413,16.97325S935.24957,727.79008,925.34085,728.59207Z" transform="translate(-42.04308 -33.7182)"/><polyline fill="none" stroke="#3f3d56" stroke-miterlimit="10" stroke-width="2" points="49.464 361.025 491.957 361.025 560.56 394.447 669.866 447.699 741.334 313.887 943.574 313.887"/><circle cx="222.811" cy="375.025" r="13.685" fill="#5a67d8"/><circle cx="350.541" cy="361.025" r="13.685" fill="#5a67d8"/><circle cx="560.384" cy="394.478" r="13.685" fill="#5a67d8"/><circle cx="855.379" cy="313.887" r="13.685" fill="#5a67d8"/><circle cx="712.443" cy="367.108" r="13.685" fill="#5a67d8"/><circle cx="427.576" cy="581.441" r="14.756" fill="none" stroke="#3f3d56" stroke-miterlimit="10" stroke-width="2"/><ellipse cx="170" cy="809.436" fill="#3f3d56" rx="170" ry="23.127"/><circle cx="160.805" cy="696.436" r="79" fill="#2f2e41"/><rect width="24" height="43" x="124.805" y="758.436" fill="#2f2e41"/><rect width="24" height="43" x="172.805" y="758.436" fill="#2f2e41"/><ellipse cx="144.805" cy="801.936" fill="#2f2e41" rx="20" ry="7.5"/><ellipse cx="192.805" cy="800.936" fill="#2f2e41" rx="20" ry="7.5"/><circle cx="162.805" cy="676.436" r="27" fill="#fff"/><circle cx="162.805" cy="676.436" r="9" fill="#3f3d56"/><path fill="#5a67d8" d="M126.215,656.68687c-6.37889-28.56758,14.01185-57.43391,45.544-64.47476s62.2651,10.41,68.644,38.97759-14.51861,39.1038-46.05075,46.14465S132.59385,685.25445,126.215,656.68687Z" transform="translate(-42.04308 -33.7182)"/><circle cx="133.805" cy="469.436" r="79" fill="#2f2e41"/><rect width="24" height="43" x="97.805" y="531.436" fill="#2f2e41"/><rect width="24" height="43" x="145.805" y="531.436" fill="#2f2e41"/><ellipse cx="117.805" cy="574.936" fill="#2f2e41" rx="20" ry="7.5"/><ellipse cx="165.805" cy="573.936" fill="#2f2e41" rx="20" ry="7.5"/><circle cx="135.805" cy="449.436" r="27" fill="#fff"/><circle cx="135.805" cy="449.436" r="9" fill="#3f3d56"/><path fill="#5a67d8" d="M99.215,429.68687c-6.37889-28.56758,14.01185-57.43391,45.544-64.47476s62.2651,10.41,68.644,38.97759-14.51861,39.1038-46.05075,46.14465S105.59385,458.25445,99.215,429.68687Z" transform="translate(-42.04308 -33.7182)"/><ellipse cx="86.867" cy="466.498" fill="#2f2e41" rx="12.4" ry="39.5" transform="translate(-413.89514 311.35892) rotate(-64.62574)"/><path fill="#fff" d="M137.04308,531.65459c0,7.732,19.90861,23,42,23s42.80455-21.768,42.80455-29.5-20.71316,1.5-42.80455,1.5S137.04308,523.92261,137.04308,531.65459Z" transform="translate(-42.04308 -33.7182)"/><rect width="126.129" height="64.161" x="835.474" y="564.71" fill="#5a67d8"/><rect width="126.129" height="64.161" x="825.603" y="575.129" fill="none" stroke="#3f3d56" stroke-miterlimit="10" stroke-width="2"/><rect width="36" height="36" x="226.603" y="199" fill="#ff6584"/><rect width="36" height="36" x="217.603" y="187" fill="none" stroke="#3f3d56" stroke-miterlimit="10" stroke-width="2"/><circle cx="906.052" cy="189.47" r="79" fill="#2f2e41"/><rect width="24" height="43" x="974.585" y="279.578" fill="#2f2e41" transform="matrix(-0.98401, 0.17813, -0.17813, -0.98401, 1968.98075, 387.87775)"/><rect width="24" height="43" x="927.353" y="288.128" fill="#2f2e41" transform="translate(1876.79468 413.25547) rotate(169.73894)"/><ellipse cx="939.065" cy="336.103" fill="#2f2e41" rx="20" ry="7.5" transform="translate(-36.79955 652.79249) rotate(-40.26106)"/><ellipse cx="985.313" cy="327.731" fill="#2f2e41" rx="20" ry="7.5" transform="translate(-20.43292 680.69811) rotate(-40.26106)"/><circle cx="900.521" cy="170.146" r="27" fill="#fff"/><circle cx="889.424" cy="160.468" r="9" fill="#3f3d56"/><path fill="#5a67d8" d="M1010.41514,137.24473c1.188-29.247-24.01866-54.01935-56.30069-55.33066s-59.41488,21.335-60.60291,50.582,21.2521,35.89214,53.53414,37.20345S1009.22711,166.49171,1010.41514,137.24473Z" transform="translate(-42.04308 -33.7182)"/><ellipse cx="875.15" cy="208.796" fill="#2f2e41" rx="12.4" ry="39.5" transform="translate(434.06107 981.45545) rotate(-77.0899)"/><ellipse cx="1030.224" cy="234.584" fill="#2f2e41" rx="12.4" ry="39.5" transform="translate(529.35145 1152.63631) rotate(-77.0899)"/><path fill="#fff" d="M969.79256,254.32118a18,18,0,1,1-35.42423,6.41281c-1.77085-9.78213,5.79238-13.24363,15.57451-15.01448S968.02171,244.53905,969.79256,254.32118Z" transform="translate(-42.04308 -33.7182)"/><line x1="712.603" x2="803.603" y1="99" y2="169" fill="none" stroke="#3f3d56" stroke-miterlimit="10" stroke-width="2"/><circle cx="669.603" cy="68" r="68" fill="#ff6584"/><ellipse cx="935.71" cy="706.84" fill="#2f2e41" rx="39.5" ry="12.4" transform="translate(67.55305 1505.41525) rotate(-82.28111)"/><circle cx="68.811" cy="786.025" r="13.685" fill="#5a67d8"/><rect width="36" height="36" x="256.603" y="770" fill="#ff6584"/><circle cx="256.811" cy="794.025" r="13.685" fill="#5a67d8"/><circle cx="461.957" cy="255.025" r="13.685" fill="#5a67d8"/><circle cx="727.721" cy="679.252" r="6.535" fill="#ff6584"/><line x1="759.739" x2="759.739" y1="787.725" y2="713.313" fill="#3f3d56" stroke="#3f3d56" stroke-miterlimit="10" stroke-width="2"/><circle cx="759.739" cy="713.313" r="10.523" fill="#3f3d56"/><path fill="#3f3d56" d="M801.78241,792.89275s-1.50326-32.33193-32.32009-28.57378" transform="translate(-42.04308 -33.7182)"/></svg>